grf.mot
version=1
nRows=52
nColumns=19
inDegrees=yes
endheader
time	ground_force_vx	ground_force_vy	ground_force_vz	ground_force_px	ground_force_py	ground_force_pz	1_ground_force_vx	1_ground_force_vy	1_ground_force_vz	1_ground_force_px	1_ground_force_py	1_ground_force_pz	ground_torque_x	ground_torque_y	ground_torque_z	1_ground_torque_x	1_ground_torque_y	1_ground_torque_z	
1.23987	-123.099	971.192	-77.5633	0.0552448	0.00483329	0.0939019	0	0	0	0	0	0	0	-1.15088	0	0	0	0
1.24154	-120.163	965.596	-77.7748	0.0530839	0.00464424	0.0942791	0	0	0	0	0	0	0	-1.17699	0	0	0	0
1.2432	-117.219	959.838	-77.9399	0.0509151	0.0044545	0.0946627	0	0	0	0	0	0	0	-1.20489	0	0	0	0
1.24487	-114.271	953.925	-78.0596	0.0487393	0.00426415	0.0950518	0	0	0	0	0	0	0	-1.23452	0	0	0	0
1.24654	-111.324	947.865	-78.1348	0.0465576	0.00407328	0.0954456	0	0	0	0	0	0	0	-1.26585	0	0	0	0
1.2482	-108.38	941.663	-78.1667	0.0443711	0.00388199	0.0958432	0	0	0	0	0	0	0	-1.2988	0	0	0	0
1.24987	-105.443	935.328	-78.1565	0.0421806	0.00369035	0.0962439	0	0	0	0	0	0	0	-1.33331	0	0	0	0
1.25154	-102.518	928.866	-78.1053	0.0399873	0.00349847	0.0966469	0	0	0	0	0	0	0	-1.36932	0	0	0	0
1.2532	-99.6061	922.285	-78.0144	0.0377922	0.00330643	0.0970513	0	0	0	0	0	0	0	-1.40676	0	0	0	0
1.25487	-96.7121	915.59	-77.8851	0.0355964	0.00311432	0.0974564	0	0	0	0	0	0	0	-1.44554	0	0	0	0
1.25654	-93.8388	908.79	-77.7186	0.0334008	0.00292224	0.0978613	0	0	0	0	0	0	0	-1.48558	0	0	0	0
1.2582	-90.9891	901.891	-77.5163	0.0312067	0.00273028	0.0982653	0	0	0	0	0	0	0	-1.52681	0	0	0	0
1.25987	-88.1658	894.901	-77.2796	0.0290149	0.00253853	0.0986676	0	0	0	0	0	0	0	-1.56912	0	0	0	0
1.26154	-85.3717	887.825	-77.0099	0.0268265	0.00234708	0.0990676	0	0	0	0	0	0	0	-1.61243	0	0	0	0
1.2632	-82.6094	880.672	-76.7085	0.0246427	0.00215602	0.0994644	0	0	0	0	0	0	0	-1.65664	0	0	0	0
1.26487	-79.8813	873.449	-76.3769	0.0224644	0.00196545	0.0998575	0	0	0	0	0	0	0	-1.70165	0	0	0	0
1.26654	-77.1898	866.161	-76.0165	0.0202926	0.00177545	0.100246	0	0	0	0	0	0	0	-1.74735	0	0	0	0
1.2682	-74.5369	858.817	-75.6287	0.0181285	0.00158612	0.10063	0	0	0	0	0	0	0	-1.79364	0	0	0	0
1.26987	-71.9247	851.423	-75.2151	0.015973	0.00139754	0.101007	0	0	0	0	0	0	0	-1.84042	0	0	0	0
1.27153	-69.3551	843.986	-74.7769	0.0138272	0.00120981	0.101379	0	0	0	0	0	0	0	-1.88756	0	0	0	0
1.2732	-66.8297	836.512	-74.3157	0.011692	0.00102301	0.101744	0	0	0	0	0	0	0	-1.93497	0	0	0	0
1.27487	-64.3502	829.009	-73.8328	0.00956853	0.000837231	0.102101	0	0	0	0	0	0	0	-1.98252	0	0	0	0
1.27654	-61.918	821.484	-73.3298	0.00745769	0.00065256	0.10245	0	0	0	0	0	0	0	-2.0301	0	0	0	0
1.2782	-59.5344	813.942	-72.8079	0.00536049	0.000469081	0.102791	0	0	0	0	0	0	0	-2.07759	0	0	0	0
1.27987	-57.2005	806.39	-72.2686	0.00327789	0.00028688	0.103123	0	0	0	0	0	0	0	-2.12489	0	0	0	0
1.28154	-54.9173	798.836	-71.7132	0.00121084	0.00010604	0.103446	0	0	0	0	0	0	0	-2.17186	0	0	0	0
1.2832	-52.6856	791.285	-71.1431	-0.00083971	-7.33576e-05	0.10376	0	0	0	0	0	0	0	-2.21841	0	0	0	0
1.28487	-50.5063	783.743	-70.5596	-0.00287285	-0.000251232	0.104064	0	0	0	0	0	0	0	-2.26439	0	0	0	0
1.28654	-48.3799	776.218	-69.9639	-0.00488767	-0.000427504	0.104357	0	0	0	0	0	0	0	-2.30971	0	0	0	0
1.2882	-46.3069	768.714	-69.3574	-0.00688328	-0.000602096	0.10464	0	0	0	0	0	0	0	-2.35425	0	0	0	0
1.28987	-44.2876	761.239	-68.7413	-0.00885883	-0.000774932	0.104912	0	0	0	0	0	0	0	-2.39789	0	0	0	0
1.29154	-42.3223	753.799	-68.1167	-0.0108135	-0.000945939	0.105173	0	0	0	0	0	0	0	-2.44053	0	0	0	0
1.2932	-40.411	746.398	-67.4848	-0.0127464	-0.00111504	0.105423	0	0	0	0	0	0	0	-2.48204	0	0	0	0
1.29487	-38.5537	739.044	-66.8467	-0.0146567	-0.00128218	0.105662	0	0	0	0	0	0	0	-2.52233	0	0	0	0
1.29654	-36.7503	731.741	-66.2036	-0.0165438	-0.00144728	0.105889	0	0	0	0	0	0	0	-2.56128	0	0	0	0
1.2982	-35.0006	724.495	-65.5564	-0.0184068	-0.00161027	0.106105	0	0	0	0	0	0	0	-2.5988	0	0	0	0
1.29987	-33.3042	717.312	-64.9062	-0.0202451	-0.0017711	0.106309	0	0	0	0	0	0	0	-2.63479	0	0	0	0
1.30154	-31.6607	710.197	-64.2539	-0.0220579	-0.0019297	0.106502	0	0	0	0	0	0	0	-2.66914	0	0	0	0
1.3032	-30.0696	703.155	-63.6005	-0.0238447	-0.00208603	0.106683	0	0	0	0	0	0	0	-2.70177	0	0	0	0
1.30487	-28.5302	696.191	-62.9469	-0.0256048	-0.00224002	0.106853	0	0	0	0	0	0	0	-2.73258	0	0	0	0
1.30654	-27.0418	689.311	-62.2938	-0.0273377	-0.00239163	0.107011	0	0	0	0	0	0	0	-2.76149	0	0	0	0
1.3082	-25.6037	682.518	-61.642	-0.0290429	-0.00254081	0.107157	0	0	0	0	0	0	0	-2.78842	0	0	0	0
1.30987	-24.215	675.818	-60.9924	-0.0307198	-0.00268752	0.107292	0	0	0	0	0	0	0	-2.8133	0	0	0	0
1.31154	-22.8748	669.216	-60.3456	-0.032368	-0.00283172	0.107416	0	0	0	0	0	0	0	-2.83604	0	0	0	0
1.3132	-21.582	662.714	-59.7024	-0.0339872	-0.00297339	0.107529	0	0	0	0	0	0	0	-2.85659	0	0	0	0
1.31487	-20.3357	656.318	-59.0632	-0.0355771	-0.00311249	0.107631	0	0	0	0	0	0	0	-2.87488	0	0	0	0
1.31653	-19.1347	650.032	-58.4287	-0.0371374	-0.003249	0.107722	0	0	0	0	0	0	0	-2.89085	0	0	0	0
1.3182	-17.9779	643.859	-57.7994	-0.0386678	-0.00338289	0.107802	0	0	0	0	0	0	0	-2.90446	0	0	0	0
1.31987	-16.8641	637.804	-57.1758	-0.0401683	-0.00351417	0.107872	0	0	0	0	0	0	0	-2.91565	0	0	0	0
1.32154	-15.7919	631.869	-56.5584	-0.0416388	-0.00364282	0.107932	0	0	0	0	0	0	0	-2.92439	0	0	0	0
1.3232	-14.7602	626.058	-55.9476	-0.0430792	-0.00376885	0.107983	0	0	0	0	0	0	0	-2.93063	0	0	0	0
1.32487	-13.7675	620.375	-55.3437	-0.0444896	-0.00389225	0.108023	0	0	0	0	0	0	0	-2.93436	0	0	0	0
